<?xml version="1.0" encoding="UTF-8"?>
<svg xmlns="http://www.w3.org/2000/svg" xmlns:xlink="http://www.w3.org/1999/xlink" width="512" height="512" viewBox="0 0 34 58" version="1.1"><!-- Generator: Sketch 51.3 (57544) - http://www.bohemiancoding.com/sketch --><title>005 - Fermenting Tank</title><desc>Created with Sketch.</desc><defs/><g id="Page-1" stroke="none" stroke-width="1" fill="none" fill-rule="evenodd"><g id="005---Fermenting-Tank" fill="#000000" fill-rule="nonzero"><polygon id="Shape" points="13.36 40 17 51.647 20.64 40"/><path d="M10,40 L6.723,40 L13.868,52.5 C14.415,53.59 14.69,53.883 15.629,53.963 L11.265,40 L10,40 Z" id="Shape"/><path d="M26,58 C26.5522847,58 27,57.5522847 27,57 L27,44.516 L25,48.016 L25,57 C25,57.5522847 25.4477153,58 26,58 Z" id="Shape"/><path d="M8,58 C8.55228475,58 9,57.5522847 9,57 L9,48.014 L7,44.514 L7,57 C7,57.5522847 7.44771525,58 8,58 Z" id="Shape"/><path d="M24,40 L22.735,40 L18.37,53.968 C19.308,53.89 19.578,53.607 20.105,52.553 L20.132,52.504 L27.277,40 L24,40 Z" id="Shape"/><circle id="Oval" cx="17" cy="30" r="3"/><path d="M3,37 L6,37 L6,38 L28,38 L28,37 L31,37 C32.6568542,37 34,35.6568542 34,34 L34,10 C33.9939376,4.47966557 29.5203344,0.00606237045 24,0 L10,0 C4.47966557,0.00606237045 0.00606237045,4.47966557 0,10 L0,34 C0,35.6568542 1.34314575,37 3,37 Z M9,16 C8.44771525,16 8,15.5522847 8,15 C8,14.4477153 8.44771525,14 9,14 L10,14 C10.5522847,14 11,14.4477153 11,15 C11,15.5522847 10.5522847,16 10,16 L9,16 Z M17,35 C15.4345092,34.9954393 13.962398,34.2545681 13.026,33 L11,33 C10.4477153,33 10,32.5522847 10,32 C10,31.4477153 10.4477153,31 11,31 L12.1,31 C11.965306,30.3401368 11.965306,29.6598632 12.1,29 L11,29 C10.4477153,29 10,28.5522847 10,28 C10,27.4477153 10.4477153,27 11,27 L13.026,27 C14.4402576,25.1284487 16.9669968,24.4943683 19.0973568,25.4764045 C21.2277168,26.4584408 22.3866764,28.7915249 21.8821543,31.0824388 C21.3776323,33.3733527 19.3458079,35.0037387 17,35 Z M13,15 C13,14.4477153 13.4477153,14 14,14 L19,14 C19.5522847,14 20,14.4477153 20,15 C20,15.5522847 19.5522847,16 19,16 L14,16 C13.4477153,16 13,15.5522847 13,15 Z M2,10 C2.00495988,5.58377808 5.58377808,2.00495988 10,2 L16,2 L16,5 C16,6.1045695 15.1045695,7 14,7 L10,7 C8.34314575,7 7,8.34314575 7,10 L27,10 C27,8.34314575 25.6568542,7 24,7 L20,7 C18.8954305,7 18,6.1045695 18,5 L18,2 L24,2 C28.4162219,2.00495988 31.9950401,5.58377808 32,10 L32,34 C32,34.5522847 31.5522847,35 31,35 L28,35 L28,12 L6,12 L6,35 L3,35 C2.44771525,35 2,34.5522847 2,34 L2,10 Z" id="Shape"/><path d="M16,54 L16,56 C16,56.5522847 16.4477153,57 17,57 C17.5522847,57 18,56.5522847 18,56 L18,54 C18,53.4477153 17.5522847,53 17,53 C16.4477153,53 16,53.4477153 16,54 Z" id="Shape"/></g></g></svg>
