<?xml version='1.0' encoding='iso-8859-1'?>
<svg version="1.1" xmlns="http://www.w3.org/2000/svg" viewBox="0 0 44.053 44.053" xmlns:xlink="http://www.w3.org/1999/xlink" enable-background="new 0 0 44.053 44.053">
  <g>
    <g>
      <path fill-rule="evenodd" d="m14.411,12.953l-1.454-1.393c-0.803-0.768-2.104-0.768-2.907,0l-7.995,7.658-1.454,1.393c-0.803,0.77-0.803,2.017 0,2.785l1.454,1.393 7.995,7.658c0.803,0.77 2.104,0.77 2.907,0l1.454-1.393c0.803-0.769 0.803-2.016 0-2.784l-6.541-6.266 6.541-6.266c0.803-0.769 0.803-2.015-1.77636e-15-2.785zm-9.448,9.051l7.995,7.659-1.454,1.392-7.995-7.658-1.454-1.393 1.454-1.393 7.995-7.658 1.454,1.393-7.995,7.658zm38.488-1.375l-1.454-1.391-7.995-7.647c-0.803-0.769-2.104-0.769-2.907,0l-1.454,1.391c-0.803,0.768-0.803,2.013 0,2.78l6.541,6.258-6.541,6.257c-0.803,0.768-0.803,2.013 0,2.781l1.454,1.391c0.803,0.768 2.104,0.768 2.907,0l7.995-7.648 1.454-1.39c0.803-0.769 0.803-2.014 0-2.782zm-2.907,2.781l-7.995,7.647-1.454-1.391 7.995-7.648-7.995-7.648 1.454-1.391 7.995,7.647 1.454,1.391-1.454,1.393z"/>
    </g>
  </g>
  <g>
    <g>
      <path fill-rule="evenodd" d="m28.321,.697l-1.948-.532c-1.075-0.293-2.186,0.34-2.48,1.415l-9.582,39.3c-0.294,1.074 0.339,2.184 1.415,2.478l1.948,.531c1.076,0.294 2.187-0.339 2.481-1.414l9.582-39.3c0.293-1.076-0.34-2.185-1.416-2.478zm-10.114,41.245l-1.948-.531 9.582-39.3 1.947,.532-9.581,39.299z"/>
    </g>
  </g>
</svg>
