<?xml version="1.0" encoding="iso-8859-1"?>
<!-- Generator: Adobe Illustrator 19.1.0, SVG Export Plug-In . SVG Version: 6.00 Build 0)  -->
<svg version="1.1" id="Capa_1" xmlns="http://www.w3.org/2000/svg" xmlns:xlink="http://www.w3.org/1999/xlink" x="0px" y="0px"
	 viewBox="0 0 290.946 290.946" style="enable-background:new 0 0 290.946 290.946;" xml:space="preserve">
<g>
	<g>
		<path d="M144.869,5.734C65.191,5.734,0,70.925,0,150.604c0,3.622,2.414,6.036,6.036,6.036h4.225
			c0.604,10.262,1.811,19.919,4.829,28.974c0,0.604,0,0.604,0,1.207c0,1.811,0.604,3.018,1.811,4.225
			c17.505,54.326,68.209,94.165,128.571,94.165s111.066-39.839,128.572-94.165c1.207-1.207,1.811-2.414,1.811-4.225
			c0-0.604,0-0.604,0-0.604c2.414-9.658,4.225-19.316,4.829-29.577h4.225c3.622,0,6.036-2.414,6.036-6.036
			C289.739,70.926,224.547,5.734,144.869,5.734z M277.666,144.567h-86.318c-1.207-63.984,11.469-98.39,16.901-110.463
			C248.089,55.835,275.252,96.881,277.666,144.567z M197.384,28.672c-6.036,13.28-19.316,49.497-18.109,115.895h-68.813
			C111.67,78.169,98.994,41.952,92.354,28.672c16.298-6.64,33.803-10.865,52.515-10.865
			C163.582,17.807,181.087,22.032,197.384,28.672z M81.489,34.105c5.433,12.072,18.109,46.479,16.901,110.463H12.072
			C14.487,96.881,41.65,55.835,81.489,34.105z M144.869,273.743c-52.515,0-97.787-33.199-114.688-80.282h31.992
			c3.622,11.469,16.298,20.523,31.388,20.523s28.37-8.451,31.388-20.523h39.235c3.622,11.469,16.298,20.523,31.388,20.523
			c15.091,0,28.37-8.451,31.388-20.523h31.992C242.656,239.94,197.384,273.743,144.869,273.743z M114.085,187.425
			c0,7.847-9.658,14.487-20.523,14.487s-20.523-6.64-20.523-14.487s9.658-14.487,20.523-14.487S114.085,179.578,114.085,187.425
			L114.085,187.425L114.085,187.425z M196.177,201.308c-10.865,0-20.523-6.64-20.523-14.487l0,0l0,0
			c0-7.847,9.658-14.487,20.523-14.487c10.865,0,20.523,6.64,20.523,14.487C216.7,194.668,207.042,201.308,196.177,201.308z
			 M263.783,181.388h-35.614c-3.622-11.469-16.298-20.523-31.388-20.523s-28.37,8.451-31.388,20.523h-39.235
			c-3.622-11.469-16.298-20.523-31.388-20.523s-28.37,8.451-31.388,20.523H27.767c-1.811-7.847-3.018-15.694-3.622-24.145h81.489
			l0,0h80.885l0,0h81.489C266.801,165.091,265.594,173.541,263.783,181.388z"/>
		<path d="M172.636,231.489c-31.388,17.505-54.326,1.207-55.533,0.604c-2.414-1.811-6.64-1.811-8.451,1.207
			c-1.811,3.018-1.811,6.64,1.207,8.451c0.604,0.604,13.883,10.262,33.803,10.262c10.262,0,21.73-2.414,35.01-9.658
			c3.018-1.811,4.225-5.433,2.414-8.451C179.276,230.885,175.654,230.282,172.636,231.489z"/>
	</g>
</g>
<g>
</g>
<g>
</g>
<g>
</g>
<g>
</g>
<g>
</g>
<g>
</g>
<g>
</g>
<g>
</g>
<g>
</g>
<g>
</g>
<g>
</g>
<g>
</g>
<g>
</g>
<g>
</g>
<g>
</g>
</svg>
