<?xml version="1.0" encoding="iso-8859-1"?>
<!-- Generator: Adobe Illustrator 19.1.0, SVG Export Plug-In . SVG Version: 6.00 Build 0)  -->
<svg version="1.1" id="Capa_1" xmlns="http://www.w3.org/2000/svg" xmlns:xlink="http://www.w3.org/1999/xlink" x="0px" y="0px"
	 viewBox="0 0 281.288 281.288" style="enable-background:new 0 0 281.288 281.288;" xml:space="preserve">
<g>
	<g>
		<path d="M204.024,119.517c6.64,0,13.883-2.414,19.316-7.244c12.676-10.865,14.487-29.577,3.622-42.254
			c-10.865-12.676-29.577-14.487-42.254-3.622c-6.036,5.433-10.262,12.676-10.865,20.523s1.811,15.694,6.64,22.334
			C187.123,115.895,195.573,119.517,204.024,119.517z M192.555,75.453c3.622-3.018,7.243-4.225,11.469-4.225
			c5.433,0,10.262,2.414,13.883,6.64c6.64,7.847,5.433,19.316-2.414,25.352c-7.847,6.64-19.316,5.433-25.352-2.414
			c-3.018-3.622-4.829-8.451-4.225-13.28C186.519,82.696,188.934,78.471,192.555,75.453z"/>
		<path d="M54.326,178.068c0.604,0,0.604,0,1.207,0l0,0l3.622-0.604c4.225-0.604,9.054-1.207,13.28-1.207h0.604
			c2.414,0,4.225,0,6.64,0h0.604c2.414,0,4.225,0.604,6.64,0.604c2.414,0.604,4.225,1.207,6.64,1.811
			c4.225,1.207,9.054,2.414,13.883,3.018c0.604,0,1.207,0,1.811,0c7.244,0,13.883-2.414,20.523-4.225
			c4.829-1.811,9.658-3.018,14.487-3.622c1.207,0,2.414,0,4.225,0c0.604,0,1.207,0,1.811,0c0.604,0,1.207,0,1.811,0
			c1.811,0,3.622,0.604,5.433,0.604l2.414,0.604c1.207,0,2.414,0.604,3.622,0.604c7.847,1.811,16.298,3.622,25.352,1.811
			c3.622-0.604,6.64-1.811,9.658-2.414c4.225-1.207,7.847-2.414,11.469-2.414c3.018,0,6.64,1.207,10.262,2.414
			c2.414,0.604,5.433,1.811,8.451,2.414c5.433,1.207,10.262,1.207,15.091,1.207l37.425-0.604v-12.072l-37.425,0.604
			c-4.829,0-9.054,0-12.676-0.604c-2.414-0.604-4.225-1.207-6.64-1.811c-4.225-1.207-8.451-3.018-13.883-3.018
			c-5.433,0-10.865,1.207-15.694,3.018c-3.018,0.604-5.433,1.811-7.847,2.414c-4.829,0.604-10.262,0-15.694-0.604
			c4.829-5.433,7.847-12.072,8.451-19.919c0.604-9.658-1.811-18.712-7.847-25.956l-1.811-2.414
			c-6.036-7.244-14.487-11.469-24.145-12.676c-4.225-0.604-8.451,0-12.676,1.207l-29.577-35.01l28.37-35.01l-9.658-7.847
			l-35.01,42.857l34.407,40.443c-0.604,0.604-1.207,0.604-1.811,1.207l-63.38,53.119c-0.604,0-1.811,0-2.414,0.604
			c-9.658,1.207-18.712,3.018-27.767,1.811c-6.64-0.604-13.28-3.018-19.316-6.64l-6.036,10.262
			c7.244,4.225,15.694,7.244,24.145,7.847C33.803,181.086,44.064,179.879,54.326,178.068z M126.157,121.931
			c4.829-4.225,10.865-6.036,16.901-5.433c6.036,0.604,12.072,3.622,15.694,8.451l1.811,2.414
			c4.225,4.829,6.036,10.865,5.433,16.901c-0.604,6.036-3.622,12.072-8.451,15.694l-2.415,2.414l0,0
			c-1.811,0-3.622-0.604-4.829-0.604c-0.604,0-1.207,0-1.207,0c-2.414,0-4.225,0-6.64,0c-6.036,0.604-11.469,2.414-16.901,4.225
			c-6.036,1.811-12.072,4.225-17.505,3.622c-3.622,0-7.244-1.207-10.865-2.414c-2.414-0.604-4.829-1.207-7.847-1.811l0,0
			c-1.811-0.604-3.622-0.604-5.433-0.604c-0.604,0-1.207,0-1.811,0c-1.207,0-2.414,0-3.622,0c-0.604,0-0.604,0-1.207,0
			L126.157,121.931z"/>
		<path d="M242.656,202.213c-4.829,0-9.054,0-12.676-0.604c-2.414-0.604-4.225-1.207-6.64-1.811
			c-4.225-1.207-8.451-3.018-13.883-3.018c-5.433,0-10.865,1.207-15.694,3.018c-3.018,0.604-5.433,1.811-7.847,2.414
			c-6.64,1.207-13.883-0.604-21.127-1.811c-7.243-1.811-15.091-3.018-22.938-2.414c-6.036,0.604-11.469,2.414-16.901,4.225
			c-6.036,1.811-12.072,4.225-17.505,3.622c-3.622,0-7.244-1.207-10.865-2.414c-2.414-0.604-4.829-1.207-7.847-1.811
			c-12.072-2.414-24.145-0.604-35.614,1.207c-9.658,1.207-18.712,3.018-27.767,1.811c-6.64-0.604-13.28-3.018-19.316-6.64L0,208.25
			c7.244,4.225,15.694,7.244,24.145,7.847c10.262,1.207,20.523-0.604,30.785-1.811c10.865-1.811,21.73-3.018,31.388-1.207
			c2.414,0.604,4.225,1.207,6.64,1.811c4.225,1.207,9.054,2.414,13.883,3.018c0.604,0,1.207,0,1.811,0
			c7.244,0,13.883-2.414,20.523-4.225c4.829-1.811,9.658-3.018,14.487-3.622c6.036-0.604,12.676,0.604,19.316,2.414
			c7.847,1.811,16.298,3.622,25.352,1.811c3.622-0.604,6.64-1.811,9.658-2.414c4.225-1.207,7.847-2.414,11.469-2.414
			c3.018,0,6.64,1.207,10.262,2.414c2.414,0.604,5.433,1.811,8.451,2.414c5.433,1.207,10.262,1.207,15.091,1.207l37.425-0.604
			v-12.072L242.656,202.213z"/>
		<path d="M242.656,237.223c-4.829,0-9.054,0-12.676-0.604c-2.414-0.604-4.225-1.207-6.64-1.811
			c-4.225-1.207-8.451-3.018-13.883-3.018c-5.433,0-10.865,1.207-15.694,3.018c-3.018,0.604-5.433,1.811-7.847,2.414
			c-6.64,1.207-13.883-0.604-21.127-1.811c-7.243-1.811-15.091-3.018-22.938-2.414c-6.036,0.604-11.469,2.414-16.901,4.225
			c-6.036,1.811-12.072,4.225-17.505,3.622c-3.622,0-7.244-1.207-10.865-2.414c-2.414-0.604-4.829-1.207-7.847-1.811
			c-12.072-2.414-24.145-0.604-35.614,1.207c-9.658,1.207-18.712,3.018-27.767,1.811c-6.64-0.604-13.28-3.018-19.316-6.64L0,243.26
			c7.244,4.225,15.694,7.244,24.145,7.847c10.262,1.207,21.127-0.604,30.785-1.811c10.865-1.811,21.73-3.018,31.388-1.207
			c2.414,0.604,4.225,1.207,6.64,1.811c4.225,1.207,9.054,2.414,13.883,3.018c0.604,0,1.207,0,1.811,0
			c7.244,0,13.883-2.414,20.523-4.225c4.829-1.811,9.658-3.018,14.487-3.622c6.036-0.604,12.676,0.604,19.316,2.414
			c7.847,1.811,16.298,3.622,25.352,1.811c3.622-0.604,6.64-1.811,9.658-2.414c4.225-1.207,7.847-2.414,11.469-2.414
			c3.018,0,6.64,1.207,10.262,2.414c2.414,0.604,5.433,1.811,8.451,2.414c5.433,1.207,10.262,1.207,15.091,1.207l37.425-0.604
			v-12.072L242.656,237.223z"/>
	</g>
</g>
<g>
</g>
<g>
</g>
<g>
</g>
<g>
</g>
<g>
</g>
<g>
</g>
<g>
</g>
<g>
</g>
<g>
</g>
<g>
</g>
<g>
</g>
<g>
</g>
<g>
</g>
<g>
</g>
<g>
</g>
</svg>
